<svg xmlns="http://www.w3.org/2000/svg" viewBox="0 0 960 620" font-family="Arial, sans-serif">
  <rect width="960" height="620" fill="#F3F4F6"/>

  <!-- Sidebar -->
  <rect x="0" y="0" width="200" height="620" fill="#1E293B"/>
  <text x="28" y="40" fill="white" font-size="18" font-weight="bold">📊 TeamBoard</text>
  <rect x="0" y="60" width="200" height="1" fill="#334155"/>
  <text x="44" y="100" fill="#94A3B8" font-size="13">📋 ダッシュボード</text>
  <text x="44" y="132" fill="#94A3B8" font-size="13">👥 メンバー</text>
  <rect x="8" y="140" width="184" height="36" rx="6" fill="#3B82F6" opacity="0.9"/>
  <text x="44" y="164" fill="white" font-size="13">📁 プロジェクト</text>
  <text x="44" y="200" fill="#94A3B8" font-size="13">📅 ガントチャート</text>
  <text x="44" y="232" fill="#94A3B8" font-size="13">💰 予算管理</text>

  <!-- Header -->
  <rect x="200" y="0" width="760" height="56" fill="white" stroke="#E5E7EB" stroke-width="1"/>
  <text x="224" y="35" fill="#1F2937" font-size="18" font-weight="bold">プロジェクト一覧</text>
  <rect x="790" y="14" width="140" height="32" rx="6" fill="#3B82F6"/>
  <text x="860" y="35" text-anchor="middle" fill="white" font-size="12" font-weight="bold">+ 新規プロジェクト</text>

  <!-- Filter Tabs -->
  <rect x="224" y="68" width="52" height="28" rx="14" fill="#3B82F6"/>
  <text x="250" y="87" text-anchor="middle" fill="white" font-size="11">全て</text>
  <rect x="284" y="68" width="64" height="28" rx="14" fill="white" stroke="#D1D5DB" stroke-width="1"/>
  <text x="316" y="87" text-anchor="middle" fill="#6B7280" font-size="11">進行中</text>
  <rect x="356" y="68" width="52" height="28" rx="14" fill="white" stroke="#D1D5DB" stroke-width="1"/>
  <text x="382" y="87" text-anchor="middle" fill="#6B7280" font-size="11">完了</text>
  <rect x="416" y="68" width="52" height="28" rx="14" fill="white" stroke="#D1D5DB" stroke-width="1"/>
  <text x="442" y="87" text-anchor="middle" fill="#6B7280" font-size="11">保留</text>

  <!-- Project Card 1 -->
  <rect x="216" y="112" width="350" height="220" rx="10" fill="white" stroke="#E5E7EB" stroke-width="1"/>
  <rect x="216" y="112" width="350" height="4" rx="10" fill="#3B82F6"/>
  <text x="236" y="142" fill="#1F2937" font-size="15" font-weight="bold">ECサイトリニューアル</text>
  <rect x="400" y="128" width="56" height="20" rx="10" fill="#DBEAFE"/>
  <text x="428" y="142" text-anchor="middle" fill="#3B82F6" font-size="10" font-weight="600">進行中</text>
  <text x="236" y="164" fill="#9CA3AF" font-size="11">2026/01/15 — 2026/06/30</text>
  <text x="236" y="188" fill="#6B7280" font-size="11">進捗</text>
  <rect x="236" y="196" width="310" height="8" rx="4" fill="#E5E7EB"/>
  <rect x="236" y="196" width="217" height="8" rx="4" fill="#3B82F6"/>
  <text x="536" y="192" text-anchor="end" fill="#3B82F6" font-size="11" font-weight="600">70%</text>
  <text x="236" y="224" fill="#6B7280" font-size="11">予算消化</text>
  <rect x="236" y="232" width="310" height="8" rx="4" fill="#E5E7EB"/>
  <rect x="236" y="232" width="186" height="8" rx="4" fill="#F59E0B"/>
  <text x="536" y="228" text-anchor="end" fill="#F59E0B" font-size="11" font-weight="600">60%</text>
  <text x="236" y="260" fill="#6B7280" font-size="11">予算: 500万円</text>
  <text x="380" y="260" fill="#6B7280" font-size="11">実績: 300万円</text>
  <!-- Member Avatars -->
  <circle cx="248" cy="298" r="12" fill="#3B82F6"/>
  <circle cx="268" cy="298" r="12" fill="#10B981"/>
  <circle cx="288" cy="298" r="12" fill="#F59E0B"/>
  <circle cx="308" cy="298" r="12" fill="#E5E7EB"/>
  <text x="308" y="302" text-anchor="middle" fill="#6B7280" font-size="9">+2</text>
  <text x="248" y="302" text-anchor="middle" fill="white" font-size="9">田</text>
  <text x="268" y="302" text-anchor="middle" fill="white" font-size="9">佐</text>
  <text x="288" y="302" text-anchor="middle" fill="white" font-size="9">鈴</text>

  <!-- Project Card 2 -->
  <rect x="580" y="112" width="350" height="220" rx="10" fill="white" stroke="#E5E7EB" stroke-width="1"/>
  <rect x="580" y="112" width="350" height="4" rx="10" fill="#10B981"/>
  <text x="600" y="142" fill="#1F2937" font-size="15" font-weight="bold">モバイルアプリ開発</text>
  <rect x="764" y="128" width="56" height="20" rx="10" fill="#DBEAFE"/>
  <text x="792" y="142" text-anchor="middle" fill="#3B82F6" font-size="10" font-weight="600">進行中</text>
  <text x="600" y="164" fill="#9CA3AF" font-size="11">2026/02/01 — 2026/08/31</text>
  <text x="600" y="188" fill="#6B7280" font-size="11">進捗</text>
  <rect x="600" y="196" width="310" height="8" rx="4" fill="#E5E7EB"/>
  <rect x="600" y="196" width="140" height="8" rx="4" fill="#10B981"/>
  <text x="900" y="192" text-anchor="end" fill="#10B981" font-size="11" font-weight="600">45%</text>
  <text x="600" y="224" fill="#6B7280" font-size="11">予算消化</text>
  <rect x="600" y="232" width="310" height="8" rx="4" fill="#E5E7EB"/>
  <rect x="600" y="232" width="93" height="8" rx="4" fill="#10B981"/>
  <text x="900" y="228" text-anchor="end" fill="#10B981" font-size="11" font-weight="600">30%</text>
  <text x="600" y="260" fill="#6B7280" font-size="11">予算: 800万円</text>
  <text x="744" y="260" fill="#6B7280" font-size="11">実績: 240万円</text>
  <circle cx="612" cy="298" r="12" fill="#8B5CF6"/>
  <circle cx="632" cy="298" r="12" fill="#EC4899"/>
  <text x="612" y="302" text-anchor="middle" fill="white" font-size="9">高</text>
  <text x="632" y="302" text-anchor="middle" fill="white" font-size="9">山</text>

  <!-- Project Card 3 -->
  <rect x="216" y="348" width="350" height="220" rx="10" fill="white" stroke="#E5E7EB" stroke-width="1"/>
  <rect x="216" y="348" width="350" height="4" rx="10" fill="#10B981"/>
  <text x="236" y="378" fill="#1F2937" font-size="15" font-weight="bold">社内ポータル構築</text>
  <rect x="394" y="364" width="56" height="20" rx="10" fill="#D1FAE5"/>
  <text x="422" y="378" text-anchor="middle" fill="#10B981" font-size="10" font-weight="600">完了間近</text>
  <text x="236" y="400" fill="#9CA3AF" font-size="11">2025/10/01 — 2026/03/15</text>
  <text x="236" y="424" fill="#6B7280" font-size="11">進捗</text>
  <rect x="236" y="432" width="310" height="8" rx="4" fill="#E5E7EB"/>
  <rect x="236" y="432" width="279" height="8" rx="4" fill="#10B981"/>
  <text x="536" y="428" text-anchor="end" fill="#10B981" font-size="11" font-weight="600">90%</text>
  <text x="236" y="460" fill="#6B7280" font-size="11">予算消化</text>
  <rect x="236" y="468" width="310" height="8" rx="4" fill="#E5E7EB"/>
  <rect x="236" y="468" width="263" height="8" rx="4" fill="#F59E0B"/>
  <text x="536" y="464" text-anchor="end" fill="#F59E0B" font-size="11" font-weight="600">85%</text>
  <text x="236" y="496" fill="#6B7280" font-size="11">予算: 300万円</text>
  <text x="380" y="496" fill="#6B7280" font-size="11">実績: 255万円</text>
  <circle cx="248" cy="534" r="12" fill="#3B82F6"/>
  <circle cx="268" cy="534" r="12" fill="#F59E0B"/>
  <text x="248" y="538" text-anchor="middle" fill="white" font-size="9">田</text>
  <text x="268" y="538" text-anchor="middle" fill="white" font-size="9">鈴</text>

  <!-- Project Card 4 -->
  <rect x="580" y="348" width="350" height="220" rx="10" fill="white" stroke="#E5E7EB" stroke-width="1"/>
  <rect x="580" y="348" width="350" height="4" rx="10" fill="#F59E0B"/>
  <text x="600" y="378" fill="#1F2937" font-size="15" font-weight="bold">データ基盤移行</text>
  <rect x="760" y="364" width="52" height="20" rx="10" fill="#FEF3C7"/>
  <text x="786" y="378" text-anchor="middle" fill="#F59E0B" font-size="10" font-weight="600">計画中</text>
  <text x="600" y="400" fill="#9CA3AF" font-size="11">2026/03/01 — 2026/09/30</text>
  <text x="600" y="424" fill="#6B7280" font-size="11">進捗</text>
  <rect x="600" y="432" width="310" height="8" rx="4" fill="#E5E7EB"/>
  <rect x="600" y="432" width="78" height="8" rx="4" fill="#F59E0B"/>
  <text x="900" y="428" text-anchor="end" fill="#F59E0B" font-size="11" font-weight="600">25%</text>
  <text x="600" y="460" fill="#6B7280" font-size="11">予算消化</text>
  <rect x="600" y="468" width="310" height="8" rx="4" fill="#E5E7EB"/>
  <rect x="600" y="468" width="31" height="8" rx="4" fill="#10B981"/>
  <text x="900" y="464" text-anchor="end" fill="#10B981" font-size="11" font-weight="600">10%</text>
  <text x="600" y="496" fill="#6B7280" font-size="11">予算: 1200万円</text>
  <text x="756" y="496" fill="#6B7280" font-size="11">実績: 120万円</text>
  <circle cx="612" cy="534" r="12" fill="#10B981"/>
  <circle cx="632" cy="534" r="12" fill="#3B82F6"/>
  <circle cx="652" cy="534" r="12" fill="#8B5CF6"/>
  <text x="612" y="538" text-anchor="middle" fill="white" font-size="9">佐</text>
  <text x="632" y="538" text-anchor="middle" fill="white" font-size="9">田</text>
  <text x="652" y="538" text-anchor="middle" fill="white" font-size="9">高</text>

  <!-- Caption -->
  <rect x="0" y="590" width="960" height="30" fill="#1F2937" opacity="0.9"/>
  <text x="480" y="610" text-anchor="middle" fill="white" font-size="12">図 6.5: プロジェクト一覧 — カード形式（進捗・予算消化・メンバーアバター）</text>
</svg>